<svg width="37" height="46" viewBox="0 0 37 46" fill="none" xmlns="http://www.w3.org/2000/svg">
<g filter="url(#filter0_d_355_19)">
<path d="M30.0117 25.6484H11.832V35.2715H32.5508V42H4.18945V4.57422H31.6367V11.2012H11.832V19.1484H30.0117V25.6484Z" fill="#1F513F"/>
<path d="M30.0117 25.6484V28.6484H33.0117V25.6484H30.0117ZM11.832 25.6484V22.6484H8.83203V25.6484H11.832ZM11.832 35.2715H8.83203V38.2715H11.832V35.2715ZM32.5508 35.2715H35.5508V32.2715H32.5508V35.2715ZM32.5508 42V45H35.5508V42H32.5508ZM4.18945 42H1.18945V45H4.18945V42ZM4.18945 4.57422V1.57422H1.18945V4.57422H4.18945ZM31.6367 4.57422H34.6367V1.57422H31.6367V4.57422ZM31.6367 11.2012V14.2012H34.6367V11.2012H31.6367ZM11.832 11.2012V8.20117H8.83203V11.2012H11.832ZM11.832 19.1484H8.83203V22.1484H11.832V19.1484ZM30.0117 19.1484H33.0117V16.1484H30.0117V19.1484ZM30.0117 22.6484H11.832V28.6484H30.0117V22.6484ZM8.83203 25.6484V35.2715H14.832V25.6484H8.83203ZM11.832 38.2715H32.5508V32.2715H11.832V38.2715ZM29.5508 35.2715V42H35.5508V35.2715H29.5508ZM32.5508 39H4.18945V45H32.5508V39ZM7.18945 42V4.57422H1.18945V42H7.18945ZM4.18945 7.57422H31.6367V1.57422H4.18945V7.57422ZM28.6367 4.57422V11.2012H34.6367V4.57422H28.6367ZM31.6367 8.20117H11.832V14.2012H31.6367V8.20117ZM8.83203 11.2012V19.1484H14.832V11.2012H8.83203ZM11.832 22.1484H30.0117V16.1484H11.832V22.1484ZM27.0117 19.1484V25.6484H33.0117V19.1484H27.0117Z" fill="white"/>
</g>
<defs>
<filter id="filter0_d_355_19" x="0.189453" y="0.574219" width="36.3613" height="45.4258" filterUnits="userSpaceOnUse" color-interpolation-filters="sRGB">
<feFlood flood-opacity="0" result="BackgroundImageFix"/>
<feColorMatrix in="SourceAlpha" type="matrix" values="0 0 0 0 0 0 0 0 0 0 0 0 0 0 0 0 0 0 127 0" result="hardAlpha"/>
<feOffset/>
<feGaussianBlur stdDeviation="2"/>
<feComposite in2="hardAlpha" operator="out"/>
<feColorMatrix type="matrix" values="0 0 0 0 1 0 0 0 0 1 0 0 0 0 1 0 0 0 0.5 0"/>
<feBlend mode="normal" in2="BackgroundImageFix" result="effect1_dropShadow_355_19"/>
<feBlend mode="normal" in="SourceGraphic" in2="effect1_dropShadow_355_19" result="shape"/>
</filter>
</defs>
</svg>
