<svg width="36" height="46" viewBox="0 0 36 46" fill="none" xmlns="http://www.w3.org/2000/svg">
<g filter="url(#filter0_d_355_25)">
<path d="M31.4941 11.2012H12.7305V19.8086H29.1582V26.3086H12.7305V42H4.96094V4.625H31.4941V11.2012Z" fill="#1F513F"/>
<path d="M31.4941 11.2012V14.2012H34.4941V11.2012H31.4941ZM12.7305 11.2012V8.20117H9.73047V11.2012H12.7305ZM12.7305 19.8086H9.73047V22.8086H12.7305V19.8086ZM29.1582 19.8086H32.1582V16.8086H29.1582V19.8086ZM29.1582 26.3086V29.3086H32.1582V26.3086H29.1582ZM12.7305 26.3086V23.3086H9.73047V26.3086H12.7305ZM12.7305 42V45H15.7305V42H12.7305ZM4.96094 42H1.96094V45H4.96094V42ZM4.96094 4.625V1.625H1.96094V4.625H4.96094ZM31.4941 4.625H34.4941V1.625H31.4941V4.625ZM31.4941 8.20117H12.7305V14.2012H31.4941V8.20117ZM9.73047 11.2012V19.8086H15.7305V11.2012H9.73047ZM12.7305 22.8086H29.1582V16.8086H12.7305V22.8086ZM26.1582 19.8086V26.3086H32.1582V19.8086H26.1582ZM29.1582 23.3086H12.7305V29.3086H29.1582V23.3086ZM9.73047 26.3086V42H15.7305V26.3086H9.73047ZM12.7305 39H4.96094V45H12.7305V39ZM7.96094 42V4.625H1.96094V42H7.96094ZM4.96094 7.625H31.4941V1.625H4.96094V7.625ZM28.4941 4.625V11.2012H34.4941V4.625H28.4941Z" fill="white"/>
</g>
<defs>
<filter id="filter0_d_355_25" x="0.960938" y="0.625" width="34.5332" height="45.375" filterUnits="userSpaceOnUse" color-interpolation-filters="sRGB">
<feFlood flood-opacity="0" result="BackgroundImageFix"/>
<feColorMatrix in="SourceAlpha" type="matrix" values="0 0 0 0 0 0 0 0 0 0 0 0 0 0 0 0 0 0 127 0" result="hardAlpha"/>
<feOffset/>
<feGaussianBlur stdDeviation="2"/>
<feComposite in2="hardAlpha" operator="out"/>
<feColorMatrix type="matrix" values="0 0 0 0 1 0 0 0 0 1 0 0 0 0 1 0 0 0 0.5 0"/>
<feBlend mode="normal" in2="BackgroundImageFix" result="effect1_dropShadow_355_25"/>
<feBlend mode="normal" in="SourceGraphic" in2="effect1_dropShadow_355_25" result="shape"/>
</filter>
</defs>
</svg>
