<svg width="33" height="47" viewBox="0 0 33 47" fill="none" xmlns="http://www.w3.org/2000/svg">
<g filter="url(#filter0_d_355_22)">
<path d="M20.3164 30.752V4.57422H28.1367V30.625C28.1367 33.8073 27.5866 36.3294 26.4863 38.1914C24.6243 41.3398 21.2643 42.9141 16.4062 42.9141C11.5482 42.9141 8.28971 41.6445 6.63086 39.1055C4.97201 36.5495 4.14258 33.071 4.14258 28.6699V27.8066H11.5312V28.6699C11.599 31.5645 11.9121 33.6042 12.4707 34.7891C13.0462 35.957 14.265 36.541 16.127 36.541C17.972 36.541 19.1908 35.8978 19.7832 34.6113C20.1387 33.8496 20.3164 32.5632 20.3164 30.752Z" fill="#1F513F"/>
<path d="M20.3164 4.57422V1.57422H17.3164V4.57422H20.3164ZM28.1367 4.57422H31.1367V1.57422H28.1367V4.57422ZM26.4863 38.1914L29.0686 39.7185L29.0691 39.7176L26.4863 38.1914ZM6.63086 39.1055L4.11438 40.7387L4.11936 40.7463L6.63086 39.1055ZM4.14258 27.8066V24.8066H1.14258V27.8066H4.14258ZM11.5312 27.8066H14.5312V24.8066H11.5312V27.8066ZM11.5312 28.6699H8.53125V28.705L8.53207 28.7401L11.5312 28.6699ZM12.4707 34.7891L9.75713 36.0683L9.76819 36.0918L9.77967 36.1151L12.4707 34.7891ZM19.7832 34.6113L17.0647 33.3427L17.0614 33.3495L17.0583 33.3564L19.7832 34.6113ZM23.3164 30.752V4.57422H17.3164V30.752H23.3164ZM20.3164 7.57422H28.1367V1.57422H20.3164V7.57422ZM25.1367 4.57422V30.625H31.1367V4.57422H25.1367ZM25.1367 30.625C25.1367 33.5069 24.6313 35.4337 23.9035 36.6652L29.0691 39.7176C30.5419 37.2252 31.1367 34.1077 31.1367 30.625H25.1367ZM23.9041 36.6643C22.7566 38.6046 20.5987 39.9141 16.4062 39.9141V45.9141C21.9299 45.9141 26.4921 44.0751 29.0686 39.7185L23.9041 36.6643ZM16.4062 39.9141C11.9312 39.9141 9.97381 38.7373 9.14236 37.4646L4.11936 40.7463C6.60561 44.5518 11.1652 45.9141 16.4062 45.9141V39.9141ZM9.14733 37.4723C7.91502 35.5735 7.14258 32.7358 7.14258 28.6699H1.14258C1.14258 33.4061 2.02899 37.5255 4.11439 40.7387L9.14733 37.4723ZM7.14258 28.6699V27.8066H1.14258V28.6699H7.14258ZM4.14258 30.8066H11.5312V24.8066H4.14258V30.8066ZM8.53125 27.8066V28.6699H14.5312V27.8066H8.53125ZM8.53207 28.7401C8.60053 31.6669 8.90743 34.2659 9.75713 36.0683L15.1843 33.5098C14.9168 32.9424 14.5974 31.462 14.5304 28.5998L8.53207 28.7401ZM9.77967 36.1151C11.068 38.7296 13.6833 39.541 16.127 39.541V33.541C15.4849 33.541 15.1946 33.4368 15.1128 33.3976C15.0803 33.382 15.0913 33.3822 15.1188 33.4091C15.1311 33.421 15.142 33.4339 15.1507 33.446C15.1593 33.4579 15.1625 33.4646 15.1617 33.463L9.77967 36.1151ZM16.127 39.541C18.7184 39.541 21.2701 38.5546 22.5081 35.8662L17.0583 33.3564C17.0357 33.4054 17.0244 33.4127 17.034 33.4025C17.0443 33.3915 17.0477 33.3932 17.0245 33.4054C16.968 33.4353 16.72 33.541 16.127 33.541V39.541ZM22.5018 35.88C23.1572 34.4754 23.3164 32.6093 23.3164 30.752H17.3164C17.3164 31.5694 17.2757 32.1987 17.2113 32.6646C17.1795 32.8949 17.1446 33.0655 17.1132 33.1858C17.0813 33.3086 17.0598 33.3531 17.0647 33.3427L22.5018 35.88Z" fill="white"/>
</g>
<defs>
<filter id="filter0_d_355_22" x="0.142578" y="0.574219" width="31.9941" height="46.3398" filterUnits="userSpaceOnUse" color-interpolation-filters="sRGB">
<feFlood flood-opacity="0" result="BackgroundImageFix"/>
<feColorMatrix in="SourceAlpha" type="matrix" values="0 0 0 0 0 0 0 0 0 0 0 0 0 0 0 0 0 0 127 0" result="hardAlpha"/>
<feOffset/>
<feGaussianBlur stdDeviation="2"/>
<feComposite in2="hardAlpha" operator="out"/>
<feColorMatrix type="matrix" values="0 0 0 0 1 0 0 0 0 1 0 0 0 0 1 0 0 0 0.5 0"/>
<feBlend mode="normal" in2="BackgroundImageFix" result="effect1_dropShadow_355_22"/>
<feBlend mode="normal" in="SourceGraphic" in2="effect1_dropShadow_355_22" result="shape"/>
</filter>
</defs>
</svg>
