<svg width="40" height="46" viewBox="0 0 40 46" fill="none" xmlns="http://www.w3.org/2000/svg">
<g filter="url(#filter0_d_355_24)">
<path d="M35.2266 42H27.4062L12.1211 15.416V42H4.83398V4.57422H13.0352L27.9395 30.7012V4.57422H35.2266V42Z" fill="#1F513F"/>
<path d="M35.2266 42V45H38.2266V42H35.2266ZM27.4062 42L24.8055 43.4954L25.6706 45H27.4062V42ZM12.1211 15.416L14.7218 13.9206L9.12109 4.17982V15.416H12.1211ZM12.1211 42V45H15.1211V42H12.1211ZM4.83398 42H1.83398V45H4.83398V42ZM4.83398 4.57422V1.57422H1.83398V4.57422H4.83398ZM13.0352 4.57422L15.641 3.08771L14.7776 1.57422H13.0352V4.57422ZM27.9395 30.7012L25.3336 32.1877L30.9395 42.0146V30.7012H27.9395ZM27.9395 4.57422V1.57422H24.9395V4.57422H27.9395ZM35.2266 4.57422H38.2266V1.57422H35.2266V4.57422ZM35.2266 39H27.4062V45H35.2266V39ZM30.007 40.5046L14.7218 13.9206L9.52035 16.9114L24.8055 43.4954L30.007 40.5046ZM9.12109 15.416V42H15.1211V15.416H9.12109ZM12.1211 39H4.83398V45H12.1211V39ZM7.83398 42V4.57422H1.83398V42H7.83398ZM4.83398 7.57422H13.0352V1.57422H4.83398V7.57422ZM10.4293 6.06073L25.3336 32.1877L30.5453 29.2147L15.641 3.08771L10.4293 6.06073ZM30.9395 30.7012V4.57422H24.9395V30.7012H30.9395ZM27.9395 7.57422H35.2266V1.57422H27.9395V7.57422ZM32.2266 4.57422V42H38.2266V4.57422H32.2266Z" fill="white"/>
</g>
<defs>
<filter id="filter0_d_355_24" x="0.833984" y="0.574219" width="38.3926" height="45.4258" filterUnits="userSpaceOnUse" color-interpolation-filters="sRGB">
<feFlood flood-opacity="0" result="BackgroundImageFix"/>
<feColorMatrix in="SourceAlpha" type="matrix" values="0 0 0 0 0 0 0 0 0 0 0 0 0 0 0 0 0 0 127 0" result="hardAlpha"/>
<feOffset/>
<feGaussianBlur stdDeviation="2"/>
<feComposite in2="hardAlpha" operator="out"/>
<feColorMatrix type="matrix" values="0 0 0 0 1 0 0 0 0 1 0 0 0 0 1 0 0 0 0.5 0"/>
<feBlend mode="normal" in2="BackgroundImageFix" result="effect1_dropShadow_355_24"/>
<feBlend mode="normal" in="SourceGraphic" in2="effect1_dropShadow_355_24" result="shape"/>
</filter>
</defs>
</svg>
