<svg width="37" height="46" viewBox="0 0 37 46" fill="none" xmlns="http://www.w3.org/2000/svg">
<g filter="url(#filter0_d_355_26)">
<path d="M19.8555 28.543H11.9082V42H4.13867V4.57422H20.4395C24.1973 4.57422 27.1934 5.53906 29.4277 7.46875C31.6621 9.39844 32.7793 12.3861 32.7793 16.4316C32.7793 20.8496 31.6621 23.9727 29.4277 25.8008C27.1934 27.6289 24.0026 28.543 19.8555 28.543ZM23.5117 20.748C24.5273 19.8509 25.0352 18.429 25.0352 16.4824C25.0352 14.5358 24.5189 13.1478 23.4863 12.3184C22.4707 11.4889 21.0404 11.0742 19.1953 11.0742H11.9082V22.0938H19.1953C21.0404 22.0938 22.4792 21.6452 23.5117 20.748Z" fill="#1F513F"/>
<path d="M11.9082 28.543V25.543H8.9082V28.543H11.9082ZM11.9082 42V45H14.9082V42H11.9082ZM4.13867 42H1.13867V45H4.13867V42ZM4.13867 4.57422V1.57422H1.13867V4.57422H4.13867ZM23.5117 20.748L25.4793 23.0127L25.4886 23.0046L25.4978 22.9965L23.5117 20.748ZM23.4863 12.3184L21.5887 14.642L21.5981 14.6496L21.6076 14.6572L23.4863 12.3184ZM11.9082 11.0742V8.07422H8.9082V11.0742H11.9082ZM11.9082 22.0938H8.9082V25.0938H11.9082V22.0938ZM19.8555 25.543H11.9082V31.543H19.8555V25.543ZM8.9082 28.543V42H14.9082V28.543H8.9082ZM11.9082 39H4.13867V45H11.9082V39ZM7.13867 42V4.57422H1.13867V42H7.13867ZM4.13867 7.57422H20.4395V1.57422H4.13867V7.57422ZM20.4395 7.57422C23.6791 7.57422 25.9129 8.39712 27.4669 9.73922L31.3886 5.19828C28.4738 2.681 24.7154 1.57422 20.4395 1.57422V7.57422ZM27.4669 9.73922C28.8225 10.91 29.7793 12.9197 29.7793 16.4316H35.7793C35.7793 11.8524 34.5017 7.8869 31.3886 5.19828L27.4669 9.73922ZM29.7793 16.4316C29.7793 20.433 28.7628 22.4686 27.528 23.4789L31.3274 28.1227C34.5614 25.4767 35.7793 21.2662 35.7793 16.4316H29.7793ZM27.528 23.4789C26.0206 24.7122 23.6054 25.543 19.8555 25.543V31.543C24.3998 31.543 28.3661 30.5456 31.3274 28.1227L27.528 23.4789ZM25.4978 22.9965C27.3992 21.3169 28.0352 18.9043 28.0352 16.4824H22.0352C22.0352 17.9538 21.6554 18.3849 21.5256 18.4996L25.4978 22.9965ZM28.0352 16.4824C28.0352 14.0676 27.3908 11.6067 25.3651 9.9795L21.6076 14.6572C21.647 14.6889 22.0352 15.004 22.0352 16.4824H28.0352ZM25.3839 9.99476C23.6515 8.57991 21.4549 8.07422 19.1953 8.07422V14.0742C20.6259 14.0742 21.2899 14.398 21.5887 14.642L25.3839 9.99476ZM19.1953 8.07422H11.9082V14.0742H19.1953V8.07422ZM8.9082 11.0742V22.0938H14.9082V11.0742H8.9082ZM11.9082 25.0938H19.1953V19.0938H11.9082V25.0938ZM19.1953 25.0938C21.5092 25.0938 23.7356 24.5277 25.4793 23.0127L21.5441 18.4834C21.2228 18.7626 20.5715 19.0938 19.1953 19.0938V25.0938Z" fill="white"/>
</g>
<defs>
<filter id="filter0_d_355_26" x="0.138672" y="0.574219" width="36.6406" height="45.4258" filterUnits="userSpaceOnUse" color-interpolation-filters="sRGB">
<feFlood flood-opacity="0" result="BackgroundImageFix"/>
<feColorMatrix in="SourceAlpha" type="matrix" values="0 0 0 0 0 0 0 0 0 0 0 0 0 0 0 0 0 0 127 0" result="hardAlpha"/>
<feOffset/>
<feGaussianBlur stdDeviation="2"/>
<feComposite in2="hardAlpha" operator="out"/>
<feColorMatrix type="matrix" values="0 0 0 0 1 0 0 0 0 1 0 0 0 0 1 0 0 0 0.5 0"/>
<feBlend mode="normal" in2="BackgroundImageFix" result="effect1_dropShadow_355_26"/>
<feBlend mode="normal" in="SourceGraphic" in2="effect1_dropShadow_355_26" result="shape"/>
</filter>
</defs>
</svg>
