<svg width="27" height="23" viewBox="0 0 27 23" fill="none" xmlns="http://www.w3.org/2000/svg">
<path d="M6.6 22.28C9.36 22.28 11.34 20.36 11.34 17.24C11.34 14.42 9.18 12.68 6.6 12.68C5.28 12.68 4.14 13.28 3.12 14.06L6.36 18.38L5.94 12.86C5.94 8.84 7.86 6.26 11.82 4.22L9.78 0.259997C3.72 3.38 0.72 8 0.72 14.12C0.72 19.34 2.76 22.28 6.6 22.28ZM21.54 22.28C24.36 22.28 26.34 20.36 26.34 17.24C26.34 14.42 24.12 12.68 21.54 12.68C20.28 12.68 19.14 13.28 18.12 14.06L21.3 18.38L20.94 12.86C20.94 8.84 22.86 6.26 26.76 4.22L24.78 0.259997C18.72 3.38 15.72 8 15.72 14.12C15.72 19.34 17.76 22.28 21.54 22.28Z" fill="#B3BBAA"/>
</svg>
