<svg width="27" height="23" viewBox="0 0 27 23" fill="none" xmlns="http://www.w3.org/2000/svg">
<path d="M20.4 0.720002C17.64 0.720002 15.66 2.64 15.66 5.76C15.66 8.58 17.82 10.32 20.4 10.32C21.72 10.32 22.86 9.72 23.88 8.94L20.64 4.62L21.06 10.14C21.06 14.16 19.14 16.74 15.18 18.78L17.22 22.74C23.28 19.62 26.28 15 26.28 8.88C26.28 3.66 24.24 0.720002 20.4 0.720002ZM5.46 0.720002C2.64 0.720002 0.659999 2.64 0.659999 5.76C0.659999 8.58 2.88 10.32 5.46 10.32C6.72 10.32 7.86 9.72 8.88 8.94L5.7 4.62L6.06 10.14C6.06 14.16 4.14 16.74 0.239999 18.78L2.22 22.74C8.28 19.62 11.28 15 11.28 8.88C11.28 3.66 9.24 0.720002 5.46 0.720002Z" fill="#B3BBAA"/>
</svg>
