<svg width="39" height="48" viewBox="0 0 39 48" fill="none" xmlns="http://www.w3.org/2000/svg">
<g filter="url(#filter0_d_355_20)">
<path d="M19.5449 37.5918C21.39 37.5918 22.888 37.3887 24.0391 36.9824C26.2227 36.2038 27.3145 34.7565 27.3145 32.6406C27.3145 31.4049 26.7728 30.4486 25.6895 29.7715C24.6061 29.1113 22.9049 28.5273 20.5859 28.0195L16.625 27.1309C12.7318 26.2507 10.0404 25.2943 8.55078 24.2617C6.02865 22.5352 4.76758 19.8353 4.76758 16.1621C4.76758 12.8105 5.98633 10.026 8.42383 7.80859C10.8613 5.59115 14.4414 4.48242 19.1641 4.48242C23.1081 4.48242 26.4681 5.5319 29.2441 7.63086C32.0371 9.71289 33.5013 12.7428 33.6367 16.7207H26.1211C25.9857 14.4694 25.0039 12.8698 23.1758 11.9219C21.957 11.2956 20.4421 10.9824 18.6309 10.9824C16.6165 10.9824 15.0085 11.3887 13.8066 12.2012C12.6048 13.0137 12.0039 14.1478 12.0039 15.6035C12.0039 16.9408 12.5964 17.9395 13.7812 18.5996C14.543 19.0397 16.168 19.556 18.6562 20.1484L25.1055 21.6973C27.9323 22.3743 30.0651 23.2799 31.5039 24.4141C33.7383 26.1745 34.8555 28.722 34.8555 32.0566C34.8555 35.4759 33.5436 38.3197 30.9199 40.5879C28.3132 42.8392 24.623 43.9648 19.8496 43.9648C14.9746 43.9648 11.1406 42.8561 8.34766 40.6387C5.55469 38.4043 4.1582 35.3405 4.1582 31.4473H11.623C11.86 33.1569 12.3255 34.4349 13.0195 35.2812C14.2891 36.8216 16.4642 37.5918 19.5449 37.5918Z" fill="#1F513F"/>
<path d="M24.0391 36.9824L25.0375 39.8114L25.0467 39.8081L24.0391 36.9824ZM25.6895 29.7715L27.2794 27.2275L27.2651 27.2185L27.2506 27.2097L25.6895 29.7715ZM20.5859 28.0195L19.9292 30.9468L19.9367 30.9484L19.9442 30.9501L20.5859 28.0195ZM16.625 27.1309L15.9634 30.057L15.9682 30.0581L16.625 27.1309ZM8.55078 24.2617L10.2599 21.7962L10.2527 21.7912L10.2454 21.7862L8.55078 24.2617ZM29.2441 7.63086L27.4348 10.0238L27.443 10.03L27.4511 10.0361L29.2441 7.63086ZM33.6367 16.7207V19.7207H36.7406L36.635 16.6186L33.6367 16.7207ZM26.1211 16.7207L23.1265 16.9008L23.2961 19.7207H26.1211V16.7207ZM23.1758 11.9219L24.5567 9.25859L24.547 9.25358L23.1758 11.9219ZM13.8066 12.2012L12.1264 9.71584L13.8066 12.2012ZM13.7812 18.5996L15.2821 16.002L15.2618 15.9903L15.2414 15.9789L13.7812 18.5996ZM18.6562 20.1484L19.3568 17.2314L19.3511 17.23L18.6562 20.1484ZM25.1055 21.6973L24.4049 24.6143L24.4067 24.6147L25.1055 21.6973ZM31.5039 24.4141L29.6468 26.7701L29.6473 26.7705L31.5039 24.4141ZM30.9199 40.5879L32.8808 42.8584L32.8819 42.8574L30.9199 40.5879ZM8.34766 40.6387L6.47356 42.9813L6.48227 42.9882L8.34766 40.6387ZM4.1582 31.4473V28.4473H1.1582V31.4473H4.1582ZM11.623 31.4473L14.5946 31.0354L14.2359 28.4473H11.623V31.4473ZM13.0195 35.2812L10.6997 37.1835L10.7045 37.1893L13.0195 35.2812ZM19.5449 40.5918C21.5742 40.5918 23.4459 40.3731 25.0375 39.8114L23.0406 34.1535C22.3301 34.4042 21.2058 34.5918 19.5449 34.5918V40.5918ZM25.0467 39.8081C26.5377 39.2764 27.9052 38.4258 28.8906 37.1197C29.8922 35.792 30.3145 34.2374 30.3145 32.6406H24.3145C24.3145 33.1597 24.1908 33.3867 24.1007 33.5063C23.9942 33.6474 23.724 33.9097 23.0314 34.1567L25.0467 39.8081ZM30.3145 32.6406C30.3145 30.3287 29.2038 28.4302 27.2794 27.2275L24.0995 32.3155C24.2867 32.4325 24.3104 32.4972 24.2978 32.475C24.2948 32.4697 24.2966 32.4701 24.3005 32.4859C24.3048 32.5034 24.3145 32.5516 24.3145 32.6406H30.3145ZM27.2506 27.2097C25.7343 26.2857 23.64 25.6172 21.2277 25.089L19.9442 30.9501C22.1699 31.4375 23.478 31.937 24.1283 32.3333L27.2506 27.2097ZM21.2427 25.0923L17.2818 24.2036L15.9682 30.0581L19.9292 30.9468L21.2427 25.0923ZM17.2866 24.2047C13.4255 23.3318 11.2351 22.4722 10.2599 21.7962L6.84169 26.7273C8.84562 28.1164 12.0381 29.1695 15.9634 30.057L17.2866 24.2047ZM10.2454 21.7862C8.71207 20.7365 7.76758 19.0735 7.76758 16.1621H1.76758C1.76758 20.5971 3.34522 24.3338 6.85613 26.7372L10.2454 21.7862ZM7.76758 16.1621C7.76758 13.639 8.64215 11.6656 10.4426 10.0277L6.40504 5.58947C3.33051 8.38644 1.76758 11.9821 1.76758 16.1621H7.76758ZM10.4426 10.0277C12.1292 8.49336 14.8672 7.48242 19.1641 7.48242V1.48242C14.0156 1.48242 9.59342 2.68893 6.40504 5.58947L10.4426 10.0277ZM19.1641 7.48242C22.5461 7.48242 25.248 8.37042 27.4348 10.0238L31.0535 5.23788C27.6882 2.69338 23.67 1.48242 19.1641 1.48242V7.48242ZM27.4511 10.0361C29.4034 11.4914 30.5291 13.6094 30.6385 16.8228L36.635 16.6186C36.4735 11.8763 34.6708 7.93438 31.0371 5.22562L27.4511 10.0361ZM33.6367 13.7207H26.1211V19.7207H33.6367V13.7207ZM29.1157 16.5406C28.9241 13.3563 27.4251 10.7459 24.5567 9.25861L21.7948 14.5851C22.5827 14.9937 23.0472 15.5825 23.1265 16.9008L29.1157 16.5406ZM24.547 9.25358C22.7899 8.35062 20.7715 7.98242 18.6309 7.98242V13.9824C20.1126 13.9824 21.1242 14.2405 21.8046 14.5902L24.547 9.25358ZM18.6309 7.98242C16.2427 7.98242 13.9828 8.4608 12.1264 9.71584L15.4869 14.6865C16.0341 14.3165 16.9903 13.9824 18.6309 13.9824V7.98242ZM12.1264 9.71584C10.0959 11.0886 9.00391 13.1558 9.00391 15.6035H15.0039C15.0039 15.1398 15.1138 14.9387 15.4869 14.6865L12.1264 9.71584ZM9.00391 15.6035C9.00391 16.7278 9.25759 17.857 9.86808 18.8861C10.4773 19.913 11.3442 20.676 12.3211 21.2203L15.2414 15.9789C15.1332 15.9186 15.0761 15.8716 15.0506 15.8478C15.027 15.8258 15.0245 15.8182 15.0284 15.8249C15.0324 15.8317 15.029 15.8293 15.0229 15.8054C15.0163 15.7793 15.0039 15.716 15.0039 15.6035H9.00391ZM12.2804 21.1972C13.4822 21.8915 15.5383 22.4899 17.9614 23.0669L19.3511 17.23C16.7976 16.622 15.6038 16.1879 15.2821 16.002L12.2804 21.1972ZM17.9557 23.0655L24.4049 24.6143L25.806 18.7802L19.3568 17.2314L17.9557 23.0655ZM24.4067 24.6147C27.0319 25.2435 28.6908 26.0166 29.6468 26.7701L33.361 22.058C31.4394 20.5433 28.8327 19.5052 25.8043 18.7798L24.4067 24.6147ZM29.6473 26.7705C31.0307 27.8605 31.8555 29.4634 31.8555 32.0566H37.8555C37.8555 27.9806 36.4459 24.4885 33.3605 22.0576L29.6473 26.7705ZM31.8555 32.0566C31.8555 34.5903 30.9333 36.6106 28.9579 38.3184L32.8819 42.8574C36.1539 40.0287 37.8555 36.3615 37.8555 32.0566H31.8555ZM28.9591 38.3174C27.0755 39.9441 24.1801 40.9648 19.8496 40.9648V46.9648C25.066 46.9648 29.5508 45.7343 32.8808 42.8584L28.9591 38.3174ZM19.8496 40.9648C15.4056 40.9648 12.3103 39.9542 10.213 38.2891L6.48227 42.9882C9.971 45.7581 14.5436 46.9648 19.8496 46.9648V40.9648ZM10.2217 38.2961C8.20948 36.6863 7.1582 34.5214 7.1582 31.4473H1.1582C1.1582 36.1596 2.8999 40.1223 6.47357 42.9813L10.2217 38.2961ZM4.1582 34.4473H11.623V28.4473H4.1582V34.4473ZM8.65146 31.8592C8.92438 33.8281 9.50807 35.7302 10.6997 37.1835L15.3393 33.379C15.143 33.1395 14.7957 32.4857 14.5946 31.0354L8.65146 31.8592ZM10.7045 37.1893C12.7959 39.7268 16.0588 40.5918 19.5449 40.5918V34.5918C16.8695 34.5918 15.7823 33.9164 15.3346 33.3732L10.7045 37.1893Z" fill="white"/>
</g>
<defs>
<filter id="filter0_d_355_20" x="0.158203" y="0.482422" width="38.6973" height="47.4824" filterUnits="userSpaceOnUse" color-interpolation-filters="sRGB">
<feFlood flood-opacity="0" result="BackgroundImageFix"/>
<feColorMatrix in="SourceAlpha" type="matrix" values="0 0 0 0 0 0 0 0 0 0 0 0 0 0 0 0 0 0 127 0" result="hardAlpha"/>
<feOffset/>
<feGaussianBlur stdDeviation="2"/>
<feComposite in2="hardAlpha" operator="out"/>
<feColorMatrix type="matrix" values="0 0 0 0 1 0 0 0 0 1 0 0 0 0 1 0 0 0 0.5 0"/>
<feBlend mode="normal" in2="BackgroundImageFix" result="effect1_dropShadow_355_20"/>
<feBlend mode="normal" in="SourceGraphic" in2="effect1_dropShadow_355_20" result="shape"/>
</filter>
</defs>
</svg>
