<svg width="44" height="44" viewBox="0 0 44 44" fill="none" xmlns="http://www.w3.org/2000/svg">
<g clip-path="url(#clip0_234_1026)">
<rect width="44" height="44" rx="16" fill="white" fill-opacity="0.5"/>
<path d="M0 16C0 7.16344 7.16344 0 16 0H28C36.8366 0 44 7.16344 44 16V28C44 36.8366 36.8366 44 28 44H16C7.16344 44 0 36.8366 0 28V16Z" fill="url(#paint0_linear_234_1026)"/>
<path d="M35.4933 34.4666C36.5688 36.52 37.1067 44 37.1067 44H6.89334C6.89334 44 7.43117 36.52 8.50667 34.4666C10.12 31.3867 22 27.4267 22 27.4267C22 27.4267 33.88 31.3867 35.4933 34.4666Z" fill="url(#paint1_linear_234_1026)"/>
<path d="M34.5358 25.7269L10.7087 22.8474C9.53403 16.6114 10.9274 12.6823 14.8887 11.0603C16.72 5.06 23.8476 5.54811 25.8679 6.03724C32.743 7.702 35.6322 14.2652 34.5358 25.7269Z" fill="url(#paint2_linear_234_1026)"/>
<path d="M18.48 29.1867V20.3867C14.8102 20.3318 15.526 13.9726 19.2133 15.9133C19.8733 16.2067 21.56 15.4 20.9733 13.42C24.9333 16.3533 30.4515 11.2053 30.8 14.3733C31.4857 20.6083 30.1589 25.733 26.6408 25.7333C26.2659 25.7475 25.8905 25.7252 25.52 25.6667V29.1867C24.3716 29.8711 23.2232 30.2133 22.0748 30.2133C20.9264 30.2133 19.7281 29.8711 18.48 29.1867Z" fill="url(#paint3_linear_234_1026)"/>
<path d="M25.52 25.6667V26.84C23.32 26.84 21.6089 25.7889 20.3867 23.6867C21.8533 24.6644 23.5644 25.3244 25.52 25.6667Z" fill="#DB6F3D"/>
<path d="M21.9952 30.063C22.9985 30.015 25.52 29.4958 25.52 28.3741V27.4267C25.789 27.4267 26.5591 28.062 26.9553 28.6C28.5211 30.7267 26.7843 32.6333 25.3678 32.6333C23.5805 32.6333 22.396 31.14 22 30.4216C21.604 31.1403 20.4195 32.6333 18.6322 32.6333C17.2157 32.6333 15.4789 30.7267 17.0447 28.6C17.4409 28.062 18.211 27.4267 18.48 27.4267V28.3741C18.48 29.4958 20.9352 30.015 21.9952 30.063Z" fill="white"/>
<rect width="44" height="44" rx="16" fill="white" fill-opacity="0.6"/>
</g>
<defs>
<linearGradient id="paint0_linear_234_1026" x1="22" y1="0" x2="22" y2="44" gradientUnits="userSpaceOnUse">
<stop stop-color="#806A6A"/>
<stop offset="1" stop-color="#665654"/>
</linearGradient>
<linearGradient id="paint1_linear_234_1026" x1="22" y1="44" x2="22" y2="27.4267" gradientUnits="userSpaceOnUse">
<stop stop-color="#FFC9B3"/>
<stop offset="1" stop-color="#FFD2C2"/>
</linearGradient>
<linearGradient id="paint2_linear_234_1026" x1="22.5339" y1="5.76885" x2="22.5339" y2="25.7269" gradientUnits="userSpaceOnUse">
<stop stop-color="#1D0024"/>
<stop offset="1" stop-color="#100014"/>
</linearGradient>
<linearGradient id="paint3_linear_234_1026" x1="23.5177" y1="13.3002" x2="23.5177" y2="30.2133" gradientUnits="userSpaceOnUse">
<stop stop-color="#E6864E"/>
<stop offset="1" stop-color="#EB965E"/>
</linearGradient>
<clipPath id="clip0_234_1026">
<rect width="44" height="44" rx="16" fill="white"/>
</clipPath>
</defs>
</svg>
