<svg width="559" height="546" viewBox="0 0 559 546" fill="none" xmlns="http://www.w3.org/2000/svg">
<path opacity="0.3" d="M6.1986 175.828C-4.02161 224.822 -1.62956 324.105 89.7002 329.293C203.862 335.777 244.151 115.87 231.419 74.2856C218.687 32.7009 184.051 16.4776 142.819 33.6991C113.434 45.9722 -19.5065 175.924 79.3126 236.309C178.132 296.695 330.673 282.222 378.976 112.457C424.471 -47.441 469.634 4.36519 505.458 37.0016C584.857 109.337 502.357 83.1142 542.388 150.216C597.235 242.154 474.872 173.311 462.398 295.477C455.743 360.648 600.785 465.531 491.803 492.021C411.489 488.295 406.915 390.052 379.867 344.713C352.818 299.373 259.719 283.632 222.809 354.012C151.911 461.882 277.392 584.534 344.526 529.73C411.66 474.926 302.301 340.196 231.671 451.185" stroke="#E8E0CE" stroke-width="4" stroke-linecap="round"/>
</svg>
