<svg width="16" height="16" viewBox="0 0 16 16" fill="none" xmlns="http://www.w3.org/2000/svg">
<path d="M12.4231 0.989C10.9951 2.418 9.56456 3.84725 8.13806 5.2765C6.70906 3.848 5.28006 2.41875 3.85056 0.989C2.19706 -0.66375 -0.364937 1.8995 1.28781 3.55225C2.71631 4.98 4.14606 6.41 5.57281 7.83725C4.14506 9.26575 2.71556 10.6955 1.28781 12.1247C-0.364937 13.777 2.19831 16.3395 3.85056 14.6877C5.27906 13.2585 6.70806 11.8295 8.13806 10.4002C9.56706 11.8295 10.9951 13.258 12.4231 14.6877C14.0761 16.3397 16.6383 13.777 14.9868 12.125C13.5576 10.6957 12.1286 9.26725 10.6993 7.8375C12.1288 6.4085 13.5578 4.97925 14.9868 3.55C16.6383 1.89775 14.0761 -0.6655 12.4231 0.98725" fill="#E8E0CE"/>
</svg>
